<svg width="0" height="0">
  <symbol xmlns="http://www.w3.org/2000/svg" viewBox="0 0 512 512" id="moon">
    <path d="M268.279,496c-67.574,0-130.978-26.191-178.534-73.745S16,311.293,16,243.718A252.252,252.252,0,0,1,154.183,18.676a24.44,24.44,0,0,1,34.46,28.958,220.12,220.12,0,0,0,54.8,220.923A218.746,218.746,0,0,0,399.085,333.2h0a220.2,220.2,0,0,0,65.277-9.846,24.439,24.439,0,0,1,28.959,34.461A252.256,252.256,0,0,1,268.279,496ZM153.31,55.781A219.3,219.3,0,0,0,48,243.718C48,365.181,146.816,464,268.279,464a219.3,219.3,0,0,0,187.938-105.31,252.912,252.912,0,0,1-57.13,6.513h0a250.539,250.539,0,0,1-178.268-74.016,252.147,252.147,0,0,1-67.509-235.4Z"></path>
  </symbol>

    <symbol version="1.1" id="sun" xmlns="http://www.w3.org/2000/svg" xmlns:xlink="http://www.w3.org/1999/xlink" x="0px" y="0px" xml:space="preserve" viewBox="0 0 612 612">

    <g>

      <g id="_x37__5_">

        <g>

          <path d="M76.5,286.875H19.125C8.568,286.875,0,295.443,0,306c0,10.557,8.568,19.125,19.125,19.125H76.5

				c10.557,0,19.125-8.568,19.125-19.125C95.625,295.443,87.057,286.875,76.5,286.875z M306,95.625

				c10.557,0,19.125-8.568,19.125-19.125V19.125C325.125,8.568,316.557,0,306,0c-10.557,0-19.125,8.568-19.125,19.125V76.5

				C286.875,87.057,295.443,95.625,306,95.625z M490.002,148.792l40.182-40.182c7.401-7.401,7.401-19.393,0-26.794

				s-19.394-7.401-26.795,0l-40.182,40.182c-7.401,7.401-7.401,19.393,0,26.794C470.609,156.194,482.601,156.194,490.002,148.792z

				 M141.716,443.509l-40.182,40.182c-7.401,7.401-7.401,19.393,0,26.794s19.393,7.401,26.794,0l40.182-40.182

				c7.401-7.401,7.401-19.393,0-26.794S149.118,436.107,141.716,443.509z M130.203,157.246c7.478,7.478,19.584,7.478,27.042,0

				c7.459-7.478,7.459-19.584,0-27.042L116.682,89.62c-7.478-7.478-19.584-7.478-27.043,0c-7.478,7.478-7.478,19.584,0,27.043

				L130.203,157.246z M306,516.375c-10.557,0-19.125,8.568-19.125,19.125v57.375c0,10.557,8.568,19.125,19.125,19.125

				c10.557,0,19.125-8.568,19.125-19.125V535.5C325.125,524.943,316.557,516.375,306,516.375z M481.797,454.754

				c-7.478-7.478-19.584-7.478-27.043,0c-7.478,7.479-7.478,19.584,0,27.043l40.564,40.564c7.478,7.478,19.584,7.478,27.043,0

				c7.459-7.479,7.478-19.584,0-27.043L481.797,454.754z M592.875,286.875H535.5c-10.557,0-19.125,8.568-19.125,19.125

				c0,10.557,8.568,19.125,19.125,19.125h57.375c10.557,0,19.125-8.568,19.125-19.125C612,295.443,603.432,286.875,592.875,286.875z

				 M306,133.76c-95.128,0-172.24,77.112-172.24,172.24S210.872,478.24,306,478.24S478.24,401.128,478.24,306

				S401.128,133.76,306,133.76z M306,439.837c-73.918,0-133.837-59.919-133.837-133.837S232.082,172.163,306,172.163

				S439.837,232.082,439.837,306S379.918,439.837,306,439.837z"></path>

        </g>

      </g>

    </g>

    <g></g>

    <g></g>

    <g></g>

    <g></g>

    <g></g>

    <g></g>

    <g></g>

    <g></g>

    <g></g>

    <g></g>

    <g></g>

    <g></g>

    <g></g>

    <g></g>

    <g></g>

  </symbol>

  <symbol version="1.1" id="delete" xmlns="http://www.w3.org/2000/svg" xmlns:xlink="http://www.w3.org/1999/xlink" x="0px" y="0px" xml:space="preserve" viewBox="0 0 268.476 268.476">

    <g id="Delete__x2F__Trash">

      <path d="M63.119,250.254c0,0,3.999,18.222,24.583,18.222h93.072

		c20.583,0,24.582-18.222,24.582-18.222l18.374-178.66H44.746L63.119,250.254z M170.035,98.442c0-4.943,4.006-8.949,8.949-8.949

		c4.943,0,8.95,4.006,8.95,8.949l-8.95,134.238c0,4.943-4.007,8.949-8.949,8.949c-4.942,0-8.949-4.007-8.949-8.949L170.035,98.442z

		 M125.289,98.442c0-4.943,4.007-8.949,8.949-8.949c4.943,0,8.949,4.006,8.949,8.949v134.238c0,4.943-4.006,8.949-8.949,8.949

		c-4.943,0-8.949-4.007-8.949-8.949V98.442z M89.492,89.492c4.943,0,8.949,4.006,8.949,8.949l8.95,134.238

		c0,4.943-4.007,8.949-8.95,8.949c-4.942,0-8.949-4.007-8.949-8.949L80.543,98.442C80.543,93.499,84.55,89.492,89.492,89.492z

		 M218.36,35.811h-39.376V17.899C178.984,4.322,174.593,0,161.086,0L107.39,0C95.001,0,89.492,6.001,89.492,17.899v17.913H50.116

		c-7.914,0-14.319,6.007-14.319,13.43c0,7.424,6.405,13.431,14.319,13.431H218.36c7.914,0,14.319-6.007,14.319-13.431

		C232.679,41.819,226.274,35.811,218.36,35.811z M161.086,35.811h-53.695l0.001-17.913h53.695V35.811z"></path>

    </g>

    <g></g>

    <g></g>

    <g></g>

    <g></g>

    <g></g>

    <g></g>

    <g></g>

    <g></g>

    <g></g>

    <g></g>

    <g></g>

    <g></g>

    <g></g>

    <g></g>

    <g></g>

  </symbol>


</svg>